<?xml version="1.0" encoding="UTF-8"?>
<svg version="1.1" xmlns="http://www.w3.org/2000/svg" width="676" height="676">
<path d="M0 0 C0.70659445 -0.00145344 1.4131889 -0.00290688 2.1411953 -0.00440437 C4.53885331 -0.00809042 6.93644877 -0.00456598 9.33410645 -0.0011425 C11.0584237 -0.00229329 12.7827407 -0.00388053 14.50705719 -0.00586975 C19.26873167 -0.01006884 24.03038627 -0.00796978 28.79206085 -0.00488353 C33.91821939 -0.00263199 39.04437438 -0.0061078 44.17053223 -0.00886345 C54.22191 -0.01332279 64.27328032 -0.01234395 74.32465839 -0.00945081 C82.4896736 -0.00719742 90.65468672 -0.00688397 98.81970215 -0.00797462 C100.55921733 -0.00820447 100.55921733 -0.00820447 102.33387423 -0.00843897 C104.68933296 -0.00875867 107.0447917 -0.00908289 109.40025043 -0.00941156 C131.51572293 -0.01226683 153.63119128 -0.00897859 175.74666309 -0.00361119 C194.74521399 0.00085689 213.74375878 0.00008097 232.74230957 -0.00452995 C254.77570445 -0.00987488 276.80909571 -0.01199214 298.84249115 -0.00891769 C301.18954976 -0.00859912 303.53660838 -0.00828475 305.88366699 -0.00797462 C307.03862938 -0.00782035 308.19359178 -0.00766607 309.38355303 -0.00750712 C317.54391091 -0.00664172 325.7042665 -0.00810534 333.86462402 -0.01045418 C343.80197533 -0.01325148 353.73931873 -0.01251541 363.67666912 -0.00717343 C368.75212222 -0.00453546 373.82756212 -0.00353296 378.90301514 -0.00682259 C383.54143024 -0.0097836 388.17981978 -0.00819602 392.81823254 -0.00284503 C394.50394255 -0.00172001 396.18965468 -0.00231389 397.87536335 -0.00472082 C400.15139679 -0.0077235 402.42734054 -0.00468171 404.70336914 0 C406.60666363 0.00024353 406.60666363 0.00024353 408.54840851 0.00049198 C411.35168457 0.12584114 411.35168457 0.12584114 412.35168457 1.12584114 C413.67950336 1.33188199 415.01464352 1.49213704 416.35168457 1.62584114 C420.24057346 2.01473003 420.24057346 2.01473003 421.35168457 3.12584114 C422.92949707 3.34240364 422.92949707 3.34240364 424.53918457 3.56334114 C428.03334794 4.07887344 431.04552606 4.91627095 434.35168457 6.12584114 C434.35168457 6.78584114 434.35168457 7.44584114 434.35168457 8.12584114 C436.33168457 8.12584114 438.31168457 8.12584114 440.35168457 8.12584114 C440.35168457 8.78584114 440.35168457 9.44584114 440.35168457 10.12584114 C441.67168457 10.12584114 442.99168457 10.12584114 444.35168457 10.12584114 C444.35168457 10.78584114 444.35168457 11.44584114 444.35168457 12.12584114 C445.67168457 12.12584114 446.99168457 12.12584114 448.35168457 12.12584114 C448.35168457 12.78584114 448.35168457 13.44584114 448.35168457 14.12584114 C449.67168457 14.12584114 450.99168457 14.12584114 452.35168457 14.12584114 C452.35168457 14.78584114 452.35168457 15.44584114 452.35168457 16.12584114 C453.67168457 16.12584114 454.99168457 16.12584114 456.35168457 16.12584114 C456.35168457 16.78584114 456.35168457 17.44584114 456.35168457 18.12584114 C457.27980957 18.34240364 457.27980957 18.34240364 458.22668457 18.56334114 C460.35168457 19.12584114 460.35168457 19.12584114 462.35168457 20.12584114 C462.35168457 20.78584114 462.35168457 21.44584114 462.35168457 22.12584114 C463.27980957 22.34240364 463.27980957 22.34240364 464.22668457 22.56334114 C466.35168457 23.12584114 466.35168457 23.12584114 468.35168457 24.12584114 C468.35168457 24.78584114 468.35168457 25.44584114 468.35168457 26.12584114 C469.01168457 26.12584114 469.67168457 26.12584114 470.35168457 26.12584114 C470.35168457 26.78584114 470.35168457 27.44584114 470.35168457 28.12584114 C471.01168457 28.12584114 471.67168457 28.12584114 472.35168457 28.12584114 C472.35168457 28.78584114 472.35168457 29.44584114 472.35168457 30.12584114 C473.01168457 30.12584114 473.67168457 30.12584114 474.35168457 30.12584114 C474.35168457 30.78584114 474.35168457 31.44584114 474.35168457 32.12584114 C475.01168457 32.12584114 475.67168457 32.12584114 476.35168457 32.12584114 C476.35168457 32.78584114 476.35168457 33.44584114 476.35168457 34.12584114 C477.01168457 34.12584114 477.67168457 34.12584114 478.35168457 34.12584114 C478.35168457 34.78584114 478.35168457 35.44584114 478.35168457 36.12584114 C479.01168457 36.12584114 479.67168457 36.12584114 480.35168457 36.12584114 C480.35168457 36.78584114 480.35168457 37.44584114 480.35168457 38.12584114 C481.01168457 38.12584114 481.67168457 38.12584114 482.35168457 38.12584114 C482.35168457 38.78584114 482.35168457 39.44584114 482.35168457 40.12584114 C483.01168457 40.12584114 483.67168457 40.12584114 484.35168457 40.12584114 C484.35168457 40.78584114 484.35168457 41.44584114 484.35168457 42.12584114 C485.01168457 42.12584114 485.67168457 42.12584114 486.35168457 42.12584114 C486.35168457 42.78584114 486.35168457 43.44584114 486.35168457 44.12584114 C487.01168457 44.12584114 487.67168457 44.12584114 488.35168457 44.12584114 C488.35168457 44.78584114 488.35168457 45.44584114 488.35168457 46.12584114 C489.01168457 46.12584114 489.67168457 46.12584114 490.35168457 46.12584114 C490.35168457 46.78584114 490.35168457 47.44584114 490.35168457 48.12584114 C491.01168457 48.12584114 491.67168457 48.12584114 492.35168457 48.12584114 C492.35168457 49.44584114 492.35168457 50.76584114 492.35168457 52.12584114 C493.01168457 52.12584114 493.67168457 52.12584114 494.35168457 52.12584114 C494.35168457 52.78584114 494.35168457 53.44584114 494.35168457 54.12584114 C495.01168457 54.12584114 495.67168457 54.12584114 496.35168457 54.12584114 C496.35168457 54.78584114 496.35168457 55.44584114 496.35168457 56.12584114 C497.01168457 56.12584114 497.67168457 56.12584114 498.35168457 56.12584114 C498.35168457 57.44584114 498.35168457 58.76584114 498.35168457 60.12584114 C499.01168457 60.12584114 499.67168457 60.12584114 500.35168457 60.12584114 C506.35168457 70.32584114 506.35168457 70.32584114 506.35168457 76.12584114 C507.01168457 76.12584114 507.67168457 76.12584114 508.35168457 76.12584114 C508.55664551 76.98048958 508.76160645 77.83513802 508.97277832 78.71568489 C509.37689941 80.37277473 509.37689941 80.37277473 509.78918457 82.06334114 C510.05602051 83.16548958 510.32285645 84.26763802 510.59777832 85.40318489 C511.08164182 88.02005368 511.08164182 88.02005368 512.35168457 89.12584114 C512.6850179 91.45917447 513.01835124 93.79250781 513.35168457 96.12584114 C513.68168457 96.45584114 514.01168457 96.78584114 514.35168457 97.12584114 C514.67266208 99.44401203 514.86389413 101.76363471 515.07043457 104.09459114 C515.14234294 106.11764707 515.14234294 106.11764707 516.35168457 107.12584114 C516.45050282 109.19424988 516.47724172 111.2661023 516.47752571 113.33687019 C516.47897915 113.99619018 516.48043259 114.65551016 516.48193008 115.33480954 C516.48561561 117.57165375 516.48209194 119.80843089 516.47866821 122.04527473 C516.47981903 123.6540976 516.48140628 125.2629202 516.48339546 126.87174225 C516.48759427 131.31417314 516.48549562 135.75658272 516.48240924 140.19901371 C516.48015759 144.98161086 516.48363357 149.76420421 516.48638916 154.54680061 C516.49084838 163.92440145 516.48986972 173.30199431 516.48697652 182.67959547 C516.48472308 190.29731849 516.4844097 197.91503927 516.48550034 205.53276253 C516.48573019 207.15571253 516.48573019 207.15571253 516.48596468 208.81144941 C516.48628439 211.00907215 516.4866086 213.20669488 516.48693727 215.40431762 C516.48979251 236.03760677 516.48650436 256.67089148 516.4811369 277.30417991 C516.47666883 295.02924108 516.47744475 312.75429571 516.48205566 330.47935677 C516.48740066 351.03609576 516.48951781 371.59283087 516.4864434 392.14957047 C516.48612483 394.33935356 516.48581046 396.52913666 516.48550034 398.71891975 C516.48534606 399.79648706 516.48519178 400.87405436 516.48503283 401.98427522 C516.48416745 409.59760657 516.48563101 417.21093546 516.48797989 424.82426643 C516.49077726 434.09553795 516.49004097 443.366801 516.48469914 452.63807154 C516.48206127 457.37328019 516.48105851 462.10847468 516.4843483 466.84368324 C516.48730951 471.17122796 516.4857214 475.4987453 516.48037075 479.82628751 C516.4792458 481.39894307 516.47983942 482.9716009 516.48224653 484.54425502 C516.48524965 486.66780781 516.48220697 488.79126448 516.47752571 490.91481209 C516.47736336 492.09861773 516.47720101 493.28242336 516.47703373 494.5021019 C516.35168457 497.12584114 516.35168457 497.12584114 515.35168457 498.12584114 C515.1410535 500.63001049 514.9759638 503.11724195 514.85168457 505.62584114 C514.48681971 512.99070601 514.48681971 512.99070601 513.35168457 514.12584114 C513.12093375 515.47331198 512.94015394 516.82961679 512.78918457 518.18834114 C512.64480957 519.48771614 512.50043457 520.78709114 512.35168457 522.12584114 C511.69168457 522.12584114 511.03168457 522.12584114 510.35168457 522.12584114 C510.35168457 524.10584114 510.35168457 526.08584114 510.35168457 528.12584114 C509.69168457 528.12584114 509.03168457 528.12584114 508.35168457 528.12584114 C508.35168457 530.10584114 508.35168457 532.08584114 508.35168457 534.12584114 C507.69168457 534.12584114 507.03168457 534.12584114 506.35168457 534.12584114 C506.35168457 535.44584114 506.35168457 536.76584114 506.35168457 538.12584114 C505.69168457 538.12584114 505.03168457 538.12584114 504.35168457 538.12584114 C504.35168457 539.44584114 504.35168457 540.76584114 504.35168457 542.12584114 C503.69168457 542.12584114 503.03168457 542.12584114 502.35168457 542.12584114 C502.35168457 543.44584114 502.35168457 544.76584114 502.35168457 546.12584114 C501.69168457 546.12584114 501.03168457 546.12584114 500.35168457 546.12584114 C500.35168457 547.44584114 500.35168457 548.76584114 500.35168457 550.12584114 C499.69168457 550.12584114 499.03168457 550.12584114 498.35168457 550.12584114 C498.35168457 551.44584114 498.35168457 552.76584114 498.35168457 554.12584114 C497.69168457 554.12584114 497.03168457 554.12584114 496.35168457 554.12584114 C496.35168457 554.78584114 496.35168457 555.44584114 496.35168457 556.12584114 C495.69168457 556.12584114 495.03168457 556.12584114 494.35168457 556.12584114 C494.35168457 556.78584114 494.35168457 557.44584114 494.35168457 558.12584114 C493.69168457 558.12584114 493.03168457 558.12584114 492.35168457 558.12584114 C492.35168457 559.44584114 492.35168457 560.76584114 492.35168457 562.12584114 C491.69168457 562.12584114 491.03168457 562.12584114 490.35168457 562.12584114 C490.35168457 562.78584114 490.35168457 563.44584114 490.35168457 564.12584114 C489.69168457 564.12584114 489.03168457 564.12584114 488.35168457 564.12584114 C488.35168457 564.78584114 488.35168457 565.44584114 488.35168457 566.12584114 C487.69168457 566.12584114 487.03168457 566.12584114 486.35168457 566.12584114 C486.35168457 566.78584114 486.35168457 567.44584114 486.35168457 568.12584114 C485.69168457 568.12584114 485.03168457 568.12584114 484.35168457 568.12584114 C484.35168457 568.78584114 484.35168457 569.44584114 484.35168457 570.12584114 C483.69168457 570.12584114 483.03168457 570.12584114 482.35168457 570.12584114 C482.35168457 570.78584114 482.35168457 571.44584114 482.35168457 572.12584114 C481.69168457 572.12584114 481.03168457 572.12584114 480.35168457 572.12584114 C480.35168457 572.78584114 480.35168457 573.44584114 480.35168457 574.12584114 C479.69168457 574.12584114 479.03168457 574.12584114 478.35168457 574.12584114 C478.35168457 574.78584114 478.35168457 575.44584114 478.35168457 576.12584114 C477.69168457 576.12584114 477.03168457 576.12584114 476.35168457 576.12584114 C476.35168457 576.78584114 476.35168457 577.44584114 476.35168457 578.12584114 C475.69168457 578.12584114 475.03168457 578.12584114 474.35168457 578.12584114 C474.35168457 578.78584114 474.35168457 579.44584114 474.35168457 580.12584114 C473.69168457 580.12584114 473.03168457 580.12584114 472.35168457 580.12584114 C472.35168457 580.78584114 472.35168457 581.44584114 472.35168457 582.12584114 C469.35168457 584.12584114 469.35168457 584.12584114 466.35168457 584.12584114 C466.35168457 584.78584114 466.35168457 585.44584114 466.35168457 586.12584114 C465.69168457 586.12584114 465.03168457 586.12584114 464.35168457 586.12584114 C464.35168457 586.78584114 464.35168457 587.44584114 464.35168457 588.12584114 C461.35168457 590.12584114 461.35168457 590.12584114 458.35168457 590.12584114 C458.35168457 590.78584114 458.35168457 591.44584114 458.35168457 592.12584114 C457.03168457 592.12584114 455.71168457 592.12584114 454.35168457 592.12584114 C454.35168457 592.78584114 454.35168457 593.44584114 454.35168457 594.12584114 C453.03168457 594.12584114 451.71168457 594.12584114 450.35168457 594.12584114 C450.35168457 594.78584114 450.35168457 595.44584114 450.35168457 596.12584114 C449.69168457 596.12584114 449.03168457 596.12584114 448.35168457 596.12584114 C448.35168457 596.78584114 448.35168457 597.44584114 448.35168457 598.12584114 C444.84391673 599.72939216 442.20813578 600.34620978 438.35168457 600.12584114 C438.35168457 600.78584114 438.35168457 601.44584114 438.35168457 602.12584114 C436.37168457 602.12584114 434.39168457 602.12584114 432.35168457 602.12584114 C432.35168457 602.78584114 432.35168457 603.44584114 432.35168457 604.12584114 C430.37168457 604.12584114 428.39168457 604.12584114 426.35168457 604.12584114 C426.35168457 604.78584114 426.35168457 605.44584114 426.35168457 606.12584114 C425.21730957 606.27021614 424.08293457 606.41459114 422.91418457 606.56334114 C419.54391256 606.73755592 419.54391256 606.73755592 418.35168457 608.12584114 C415.25125684 608.45030451 412.14961207 608.63918555 409.03918457 608.84459114 C406.43571705 608.83191913 406.43571705 608.83191913 405.35168457 610.12584114 C403.19991356 610.2247736 401.0448217 610.25139852 398.89077759 610.25168228 C398.20444362 610.25313572 397.51810966 610.25458916 396.8109777 610.25608665 C394.48223992 610.25977248 392.15356654 610.25624836 389.8248291 610.25282478 C388.15000945 610.25397558 386.47519004 610.25556283 384.80037117 610.25755203 C380.17551538 610.261751 375.55068006 610.25965211 370.92582417 610.25656581 C365.94690622 610.25431423 360.96799194 610.25779011 355.98907471 610.26054573 C346.22645848 610.26500503 336.46384992 610.26402626 326.70123339 610.26113309 C318.77077197 610.25887968 310.84031272 610.25856626 302.90985107 610.25965691 C301.2202924 610.25988676 301.2202924 610.25988676 299.49660122 610.26012125 C297.20878649 610.26044096 294.92097175 610.26076517 292.63315701 610.26109384 C271.15290596 610.2639491 249.67265916 610.26066089 228.1924088 610.25529347 C209.73963921 610.25082539 191.28687592 610.25160131 172.83410645 610.25621223 C151.43356408 610.26155719 130.03302546 610.2636744 108.63248253 610.26059997 C106.35282771 610.2602814 104.07317289 610.25996703 101.79351807 610.25965691 C100.671725 610.25950263 99.54993193 610.25934836 98.39414513 610.2591894 C90.46822719 610.25832401 82.54231162 610.2597876 74.61639404 610.26213646 C64.96450551 610.26493379 55.31262511 610.26419763 45.66073751 610.25885572 C40.73110347 610.25621778 35.80148302 610.25521517 30.87184906 610.25850487 C26.36666413 610.26146596 21.86150551 610.25987817 17.356323 610.25452732 C15.7190649 610.25340232 14.08180461 610.2539961 12.44454789 610.2564031 C10.23386334 610.25940596 8.02327112 610.25636381 5.81259155 610.25168228 C4.58018171 610.25151993 3.34777187 610.25135758 2.07801628 610.2511903 C-0.64831543 610.12584114 -0.64831543 610.12584114 -1.64831543 609.12584114 C-3.97817666 608.91615363 -6.31275579 608.75768725 -8.64831543 608.62584114 C-15.53720432 608.23695225 -15.53720432 608.23695225 -16.64831543 607.12584114 C-17.61769043 607.02271614 -18.58706543 606.91959114 -19.58581543 606.81334114 C-24.5911368 606.18767597 -29.05196345 604.11420266 -33.64831543 602.12584114 C-33.64831543 601.46584114 -33.64831543 600.80584114 -33.64831543 600.12584114 C-34.73112793 600.18771614 -34.73112793 600.18771614 -35.83581543 600.25084114 C-38.85560912 600.11662809 -40.91767272 599.37413495 -43.64831543 598.12584114 C-43.64831543 597.46584114 -43.64831543 596.80584114 -43.64831543 596.12584114 C-44.26706543 595.98146614 -44.88581543 595.83709114 -45.52331543 595.68834114 C-47.64831543 595.12584114 -47.64831543 595.12584114 -49.64831543 594.12584114 C-49.64831543 593.46584114 -49.64831543 592.80584114 -49.64831543 592.12584114 C-50.96831543 592.12584114 -52.28831543 592.12584114 -53.64831543 592.12584114 C-53.64831543 591.46584114 -53.64831543 590.80584114 -53.64831543 590.12584114 C-55.62831543 589.46584114 -57.60831543 588.80584114 -59.64831543 588.12584114 C-59.64831543 587.46584114 -59.64831543 586.80584114 -59.64831543 586.12584114 C-60.30831543 586.12584114 -60.96831543 586.12584114 -61.64831543 586.12584114 C-61.64831543 585.46584114 -61.64831543 584.80584114 -61.64831543 584.12584114 C-62.26706543 583.98146614 -62.88581543 583.83709114 -63.52331543 583.68834114 C-65.64831543 583.12584114 -65.64831543 583.12584114 -67.64831543 582.12584114 C-67.64831543 581.46584114 -67.64831543 580.80584114 -67.64831543 580.12584114 C-68.30831543 580.12584114 -68.96831543 580.12584114 -69.64831543 580.12584114 C-69.64831543 579.46584114 -69.64831543 578.80584114 -69.64831543 578.12584114 C-70.30831543 578.12584114 -70.96831543 578.12584114 -71.64831543 578.12584114 C-71.64831543 577.46584114 -71.64831543 576.80584114 -71.64831543 576.12584114 C-72.30831543 576.12584114 -72.96831543 576.12584114 -73.64831543 576.12584114 C-73.64831543 575.46584114 -73.64831543 574.80584114 -73.64831543 574.12584114 C-74.30831543 574.12584114 -74.96831543 574.12584114 -75.64831543 574.12584114 C-75.64831543 573.46584114 -75.64831543 572.80584114 -75.64831543 572.12584114 C-76.30831543 572.12584114 -76.96831543 572.12584114 -77.64831543 572.12584114 C-77.64831543 571.46584114 -77.64831543 570.80584114 -77.64831543 570.12584114 C-78.30831543 570.12584114 -78.96831543 570.12584114 -79.64831543 570.12584114 C-79.64831543 569.46584114 -79.64831543 568.80584114 -79.64831543 568.12584114 C-80.30831543 568.12584114 -80.96831543 568.12584114 -81.64831543 568.12584114 C-81.64831543 567.46584114 -81.64831543 566.80584114 -81.64831543 566.12584114 C-82.30831543 566.12584114 -82.96831543 566.12584114 -83.64831543 566.12584114 C-85.64831543 563.12584114 -85.64831543 563.12584114 -85.64831543 560.12584114 C-86.30831543 560.12584114 -86.96831543 560.12584114 -87.64831543 560.12584114 C-87.64831543 559.46584114 -87.64831543 558.80584114 -87.64831543 558.12584114 C-88.30831543 558.12584114 -88.96831543 558.12584114 -89.64831543 558.12584114 C-89.64831543 557.46584114 -89.64831543 556.80584114 -89.64831543 556.12584114 C-90.30831543 556.12584114 -90.96831543 556.12584114 -91.64831543 556.12584114 C-92.63831543 553.15584114 -92.63831543 553.15584114 -93.64831543 550.12584114 C-94.30831543 550.12584114 -94.96831543 550.12584114 -95.64831543 550.12584114 C-95.64831543 548.80584114 -95.64831543 547.48584114 -95.64831543 546.12584114 C-96.30831543 546.12584114 -96.96831543 546.12584114 -97.64831543 546.12584114 C-97.64831543 544.80584114 -97.64831543 543.48584114 -97.64831543 542.12584114 C-98.30831543 542.12584114 -98.96831543 542.12584114 -99.64831543 542.12584114 C-99.64831543 540.80584114 -99.64831543 539.48584114 -99.64831543 538.12584114 C-100.30831543 538.12584114 -100.96831543 538.12584114 -101.64831543 538.12584114 C-101.64831543 536.80584114 -101.64831543 535.48584114 -101.64831543 534.12584114 C-102.30831543 534.12584114 -102.96831543 534.12584114 -103.64831543 534.12584114 C-103.64831543 532.14584114 -103.64831543 530.16584114 -103.64831543 528.12584114 C-104.30831543 528.12584114 -104.96831543 528.12584114 -105.64831543 528.12584114 C-107.23348427 523.79304631 -108.02221864 519.68740348 -108.64831543 515.12584114 C-108.97831543 514.79584114 -109.30831543 514.46584114 -109.64831543 514.12584114 C-109.9727788 511.02541341 -110.16165984 507.92376865 -110.36706543 504.81334114 C-110.35439342 502.20987362 -110.35439342 502.20987362 -111.64831543 501.12584114 C-111.74714845 499.04701183 -111.77387261 496.9647547 -111.77415657 494.88357735 C-111.77561001 494.22088061 -111.77706345 493.55818388 -111.77856094 492.87540543 C-111.78224651 490.62707453 -111.77872278 488.37881035 -111.77529907 486.13047981 C-111.77644988 484.51340735 -111.77803713 482.89633515 -111.78002632 481.2792635 C-111.78422515 476.8140295 -111.78212647 472.3488167 -111.7790401 467.88358259 C-111.77678846 463.07644534 -111.78026443 458.26931188 -111.78302002 453.46217537 C-111.78747925 444.03644761 -111.78650057 434.61072778 -111.78360738 425.1849997 C-111.78135394 417.52818438 -111.78104056 409.8713713 -111.7821312 402.21455574 C-111.78228443 401.12703835 -111.78243766 400.03952095 -111.78259554 398.91904849 C-111.78291525 396.71015175 -111.78323946 394.50125501 -111.78356813 392.29235828 C-111.78642337 371.55319889 -111.78313521 350.81404391 -111.77776776 330.07488525 C-111.77329968 312.25886052 -111.7740756 294.44284231 -111.77868652 276.6268177 C-111.78403151 255.96460329 -111.78614867 235.30239274 -111.78307426 214.64017773 C-111.78275569 212.43916067 -111.78244132 210.2381436 -111.7821312 208.03712654 C-111.78197692 206.95403102 -111.78182264 205.87093549 -111.78166369 204.75501889 C-111.78079831 197.10261422 -111.78226187 189.45021199 -111.78461075 181.79780769 C-111.78740811 172.47895905 -111.78667184 163.16011883 -111.78133 153.84127116 C-111.77869212 149.08175934 -111.77768938 144.3222616 -111.78097916 139.56274986 C-111.78394035 135.21300012 -111.78235229 130.86327762 -111.7770016 126.51353037 C-111.77587666 124.9327995 -111.77647029 123.35206636 -111.77887739 121.77133691 C-111.78188047 119.63689266 -111.77883787 117.50254403 -111.77415657 115.36810493 C-111.77391304 113.58328319 -111.77391304 113.58328319 -111.77366459 111.76240444 C-111.64831543 109.12584114 -111.64831543 109.12584114 -110.64831543 108.12584114 C-110.46220161 106.08745163 -110.32487092 104.04452935 -110.21081543 102.00084114 C-109.87424698 97.06631331 -109.27368845 92.7852438 -107.64831543 88.12584114 C-106.98831543 88.12584114 -106.32831543 88.12584114 -105.64831543 88.12584114 C-105.64831543 86.14584114 -105.64831543 84.16584114 -105.64831543 82.12584114 C-104.98831543 82.12584114 -104.32831543 82.12584114 -103.64831543 82.12584114 C-103.64831543 80.14584114 -103.64831543 78.16584114 -103.64831543 76.12584114 C-102.98831543 76.12584114 -102.32831543 76.12584114 -101.64831543 76.12584114 C-101.64831543 74.80584114 -101.64831543 73.48584114 -101.64831543 72.12584114 C-100.98831543 72.12584114 -100.32831543 72.12584114 -99.64831543 72.12584114 C-99.64831543 70.80584114 -99.64831543 69.48584114 -99.64831543 68.12584114 C-98.98831543 68.12584114 -98.32831543 68.12584114 -97.64831543 68.12584114 C-97.64831543 66.80584114 -97.64831543 65.48584114 -97.64831543 64.12584114 C-96.98831543 64.12584114 -96.32831543 64.12584114 -95.64831543 64.12584114 C-95.50394043 63.50709114 -95.35956543 62.88834114 -95.21081543 62.25084114 C-94.64831543 60.12584114 -94.64831543 60.12584114 -93.64831543 58.12584114 C-92.98831543 58.12584114 -92.32831543 58.12584114 -91.64831543 58.12584114 C-91.64831543 56.80584114 -91.64831543 55.48584114 -91.64831543 54.12584114 C-90.98831543 54.12584114 -90.32831543 54.12584114 -89.64831543 54.12584114 C-89.64831543 53.46584114 -89.64831543 52.80584114 -89.64831543 52.12584114 C-88.98831543 52.12584114 -88.32831543 52.12584114 -87.64831543 52.12584114 C-87.50394043 51.50709114 -87.35956543 50.88834114 -87.21081543 50.25084114 C-86.64831543 48.12584114 -86.64831543 48.12584114 -85.64831543 46.12584114 C-84.98831543 46.12584114 -84.32831543 46.12584114 -83.64831543 46.12584114 C-83.64831543 45.46584114 -83.64831543 44.80584114 -83.64831543 44.12584114 C-82.98831543 44.12584114 -82.32831543 44.12584114 -81.64831543 44.12584114 C-81.64831543 43.46584114 -81.64831543 42.80584114 -81.64831543 42.12584114 C-80.98831543 42.12584114 -80.32831543 42.12584114 -79.64831543 42.12584114 C-79.64831543 41.46584114 -79.64831543 40.80584114 -79.64831543 40.12584114 C-78.98831543 40.12584114 -78.32831543 40.12584114 -77.64831543 40.12584114 C-77.64831543 39.46584114 -77.64831543 38.80584114 -77.64831543 38.12584114 C-76.98831543 38.12584114 -76.32831543 38.12584114 -75.64831543 38.12584114 C-75.64831543 37.46584114 -75.64831543 36.80584114 -75.64831543 36.12584114 C-74.98831543 36.12584114 -74.32831543 36.12584114 -73.64831543 36.12584114 C-73.64831543 35.46584114 -73.64831543 34.80584114 -73.64831543 34.12584114 C-72.98831543 34.12584114 -72.32831543 34.12584114 -71.64831543 34.12584114 C-71.64831543 33.46584114 -71.64831543 32.80584114 -71.64831543 32.12584114 C-70.98831543 32.12584114 -70.32831543 32.12584114 -69.64831543 32.12584114 C-69.64831543 31.46584114 -69.64831543 30.80584114 -69.64831543 30.12584114 C-68.98831543 30.12584114 -68.32831543 30.12584114 -67.64831543 30.12584114 C-67.64831543 29.46584114 -67.64831543 28.80584114 -67.64831543 28.12584114 C-66.98831543 28.12584114 -66.32831543 28.12584114 -65.64831543 28.12584114 C-65.64831543 27.46584114 -65.64831543 26.80584114 -65.64831543 26.12584114 C-62.64831543 24.12584114 -62.64831543 24.12584114 -59.64831543 24.12584114 C-59.64831543 23.46584114 -59.64831543 22.80584114 -59.64831543 22.12584114 C-58.98831543 22.12584114 -58.32831543 22.12584114 -57.64831543 22.12584114 C-57.64831543 21.46584114 -57.64831543 20.80584114 -57.64831543 20.12584114 C-56.32831543 20.12584114 -55.00831543 20.12584114 -53.64831543 20.12584114 C-53.64831543 19.46584114 -53.64831543 18.80584114 -53.64831543 18.12584114 C-50.64831543 16.12584114 -50.64831543 16.12584114 -47.64831543 16.12584114 C-47.64831543 15.46584114 -47.64831543 14.80584114 -47.64831543 14.12584114 C-46.32831543 14.12584114 -45.00831543 14.12584114 -43.64831543 14.12584114 C-43.64831543 13.46584114 -43.64831543 12.80584114 -43.64831543 12.12584114 C-42.32831543 12.12584114 -41.00831543 12.12584114 -39.64831543 12.12584114 C-39.64831543 11.46584114 -39.64831543 10.80584114 -39.64831543 10.12584114 C-38.32831543 10.12584114 -37.00831543 10.12584114 -35.64831543 10.12584114 C-35.64831543 9.46584114 -35.64831543 8.80584114 -35.64831543 8.12584114 C-33.66831543 8.12584114 -31.68831543 8.12584114 -29.64831543 8.12584114 C-29.64831543 7.46584114 -29.64831543 6.80584114 -29.64831543 6.12584114 C-27.66831543 6.12584114 -25.68831543 6.12584114 -23.64831543 6.12584114 C-23.64831543 5.46584114 -23.64831543 4.80584114 -23.64831543 4.12584114 C-22.51394043 3.98146614 -21.37956543 3.83709114 -20.21081543 3.68834114 C-16.84054342 3.51412636 -16.84054342 3.51412636 -15.64831543 2.12584114 C-13.59102373 1.80660622 -11.53218022 1.61422762 -9.46081543 1.40709114 C-0.39321898 0.00005031 -0.39321898 0.00005031 0 0 Z " fill="#FEB200" transform="translate(137.6483154296875,25.87415885925293)"/>
<path d="M0 0 C3.33216837 2.39490555 5.99706456 5.28327538 8.75 8.3125 C10.20108226 9.85218817 11.65415205 11.39000603 13.109375 12.92578125 C13.78806641 13.65104004 14.46675781 14.37629883 15.16601562 15.12353516 C17.04045727 17.12047871 17.04045727 17.12047871 19.578125 19.04296875 C21.74588106 20.7946555 23.32396081 22.46941422 25.11601257 24.58283997 C29.06769634 29.14199606 33.27785885 33.39025399 37.56567383 37.6315918 C38.80596848 38.86487717 38.80596848 38.86487717 40.07131958 40.12307739 C41.85336149 41.89467703 43.63650034 43.66517382 45.42063332 45.43466759 C48.24347194 48.23537372 51.06238514 51.0399929 53.87980652 53.84614563 C61.88614911 61.81921991 69.89680851 69.78792298 77.91772461 77.74633789 C82.36028271 82.15436281 86.79745406 86.56773593 91.22871417 90.98711902 C93.5686748 93.32032011 95.91222149 95.64973139 98.26084328 97.97421837 C100.87455792 100.56151905 103.4789038 103.15791287 106.08129883 105.7565918 C106.85792374 106.52085983 107.63454865 107.28512787 108.43470764 108.07255554 C109.14254395 108.78307068 109.85038025 109.49358582 110.57966614 110.22563171 C111.19555005 110.83745143 111.81143396 111.44927114 112.44598103 112.07963085 C115.20586995 115.49014618 116.38950372 118.9497918 116.0625 123.3125 C115.48278912 126.94418106 114.56680732 128.92488719 112.08744812 131.6300354 C111.4527529 132.32338612 110.81805767 133.01673683 110.16412926 133.73109818 C106.01407225 138.082073 101.79109483 142.35663639 97.53833008 146.60693359 C96.49926854 147.64899347 95.46041014 148.69125594 94.42173767 149.73370361 C91.62273306 152.54147581 88.82055592 155.34606018 86.0174849 158.14977217 C84.26453668 159.9034341 82.51230361 161.65780737 80.76032066 163.41243362 C74.64392114 169.53805688 68.52497226 175.66111995 62.40356445 181.78173828 C56.70205085 187.48264929 51.00615948 193.18913551 45.31282884 198.89821756 C40.41516911 203.80894304 35.51367172 208.71581544 30.60915488 213.61969244 C27.6836814 216.544911 24.75978102 219.47166063 21.83973122 222.40229416 C19.09853702 225.15315502 16.35260236 227.89919304 13.60293007 230.64157867 C12.5950051 231.64845659 11.58878673 232.65704621 10.58440781 233.6674614 C9.21359571 235.04597773 7.83600681 236.41774526 6.45808411 237.78915405 C5.30473178 238.94332353 5.30473178 238.94332353 4.12807941 240.12080956 C1.25990368 242.65353855 -0.99747356 243.81772247 -4.75 244.5 C-13.42176392 243.16588247 -20.33746795 234.13716924 -26 228 C-27.5547669 224.89046621 -27.28644437 222.43733239 -27 219 C-23.75448147 213.10193181 -18.93971702 208.67185993 -14.19238281 203.96533203 C-13.30422379 203.07688095 -12.41606476 202.18842987 -11.50099182 201.27305603 C-9.07720232 198.85041715 -6.64907578 196.43228788 -4.21887684 194.01608896 C-1.67550673 191.48526223 0.86216163 188.9487312 3.40045166 186.41281128 C8.2022618 181.61720533 13.00914515 176.8267184 17.81789231 172.03806961 C23.29463519 166.58371881 28.76566748 161.12365518 34.236238 155.66311479 C45.48450303 144.43572772 56.73988388 133.21550215 68 122 C66.57233335 118.74349048 64.83653642 116.59453066 62.3182373 114.09791565 C61.55269028 113.33395477 60.78714325 112.5699939 59.99839783 111.78288269 C59.15781326 110.95420181 58.3172287 110.12552094 57.45117188 109.27172852 C56.12419029 107.95153717 56.12419029 107.95153717 54.770401 106.60467529 C52.84801599 104.69325353 50.92393813 102.78372983 48.99684143 100.8770771 C45.94897705 97.86106053 42.90931547 94.83686743 39.87097168 91.81126404 C32.32340672 84.29776482 24.76657588 76.79360337 17.20489502 69.29431152 C11.32723071 63.46511246 5.45279041 57.6327542 -0.41116476 51.78976005 C-3.42999708 48.78244269 -6.4556372 45.78220141 -9.4865799 42.78709233 C-11.81409695 40.48329549 -14.13185263 38.16971127 -16.45117188 35.85766602 C-17.29175644 35.03100937 -18.132341 34.20435272 -18.99839783 33.35264587 C-19.76394485 32.58586517 -20.52949188 31.81908447 -21.3182373 31.02906799 C-21.98486137 30.36780694 -22.65148544 29.70654589 -23.33831024 29.02524662 C-25.74736848 26.08911668 -26.81497446 23.22460201 -27.37890625 19.4921875 C-26.8538784 16.03891151 -25.3352695 14.63084926 -22.9375 12.125 C-22.12023437 11.26261719 -21.30296875 10.40023437 -20.4609375 9.51171875 C-19.64882813 8.68285156 -18.83671875 7.85398438 -18 7 C-17.31164062 6.28457031 -16.62328125 5.56914062 -15.9140625 4.83203125 C-10.71955374 -0.48302519 -7.49256774 -2.34179586 0 0 Z " fill="#010000" transform="translate(419,206)"/>
<path d="M0 0 C12.0704701 9.93111439 12.0704701 9.93111439 13.4140625 15.8125 C13.78719768 19.68205001 13.61755499 22.15187693 11.28044987 25.3615551 C10.53201533 26.15102091 9.7835808 26.94048672 9.01246643 27.75387573 C8.19204424 28.62617702 7.37162205 29.49847832 6.52633858 30.39721298 C5.69264685 31.2561327 4.85895512 32.11505241 4 33 C3.27872358 33.74607639 2.55744717 34.49215279 1.81431389 35.26083755 C-0.38197121 37.50377094 -2.59949746 39.72351443 -4.82446289 41.93798828 C-5.65483063 42.76850204 -6.48519836 43.59901581 -7.34072876 44.45469666 C-10.04900418 47.16228294 -12.76078968 49.86632347 -15.47265625 52.5703125 C-17.36573366 54.46152218 -19.25861201 56.35292902 -21.15122986 58.24459839 C-25.60070629 62.69098619 -30.05272193 67.13482225 -34.50569195 71.57771099 C-39.58156717 76.64234773 -44.65454972 81.70987782 -49.7273103 86.77763391 C-60.14836031 97.18827552 -70.57297667 107.59534103 -81 118 C-79.5719042 121.25670829 -77.83436717 123.40944672 -75.3182373 125.90881348 C-74.16991676 127.05692253 -74.16991676 127.05692253 -72.99839783 128.22822571 C-72.15781326 129.05847763 -71.3172287 129.88872955 -70.45117188 130.74414062 C-69.56651749 131.62587448 -68.6818631 132.50760834 -67.770401 133.4160614 C-65.84805318 135.33079543 -63.92400284 137.24361823 -61.99684143 139.15348816 C-58.94940189 142.17386211 -55.90962387 145.20186831 -52.87097168 148.2310791 C-46.419874 154.65998478 -39.96037266 161.08041678 -33.5 167.5 C-26.5254042 174.43055966 -19.55225888 181.36254087 -12.58883524 188.30432844 C-9.56816055 191.31504001 -6.54267621 194.32080754 -3.5134201 197.32288361 C-1.1879549 199.62992496 1.13107469 201.94342158 3.45117188 204.25585938 C4.71204872 205.50123726 4.71204872 205.50123726 5.99839783 206.77177429 C6.76394485 207.53718033 7.52949188 208.30258636 8.3182373 209.09118652 C8.98486137 209.75336937 9.65148544 210.41555222 10.33831024 211.09780121 C12.51523303 213.58980664 13.85930028 215.77165536 14.23803711 219.078125 C13.75787215 226.11527081 10.63879711 229.37836662 5.5625 234 C4.52125977 234.99966797 4.52125977 234.99966797 3.45898438 236.01953125 C-2.67351336 241.84926288 -2.67351336 241.84926288 -6.75 242.3125 C-12.74113528 241.7364293 -16.76270065 237.48746006 -20.88409424 233.37660217 C-21.81500885 232.45277237 -22.74592346 231.52894257 -23.70504761 230.57711792 C-24.71915986 229.56071235 -25.73316384 228.54419874 -26.74707031 227.52758789 C-27.82803565 226.45097393 -28.90941682 225.37477733 -29.99118042 224.29896545 C-32.91713208 221.38636498 -35.83668675 218.46743242 -38.75470066 215.54688191 C-41.1934381 213.10707275 -43.63515001 210.67025108 -46.07681537 208.23337263 C-51.83578906 202.48547937 -57.58943596 196.73229199 -63.33984375 190.97583008 C-69.27059456 185.0390315 -75.21048148 179.11148734 -81.15488362 173.18836027 C-86.26274391 168.09810941 -91.36478525 163.00207729 -96.46221995 157.9013862 C-99.50493071 154.85686237 -102.54982546 151.81460707 -105.60037994 148.77794075 C-108.46676376 145.92412086 -111.32581504 143.06315339 -114.17938614 140.19652367 C-115.22731767 139.1462242 -116.27781195 138.09847452 -117.33104324 137.05348969 C-118.76891017 135.62607183 -120.19664158 134.18846587 -121.62384033 132.75038147 C-122.42538166 131.94900788 -123.22692299 131.1476343 -124.05275345 130.32197666 C-127.82351793 125.82556242 -128.50787728 121.78980094 -128 116 C-126.10796259 111.53088449 -123.82999267 108.45376507 -120.41419983 105.0332489 C-119.95710095 104.57147005 -119.50000208 104.10969121 -119.02905172 103.63391906 C-117.5069486 102.09992091 -115.97443413 100.57678707 -114.44165039 99.0534668 C-113.34364137 97.95138975 -112.24627095 96.84867616 -111.14949036 95.74537659 C-108.17714387 92.75938146 -105.19541979 89.78292017 -102.2114861 86.80850959 C-99.08851411 83.69314302 -95.9728797 80.57045207 -92.85606384 77.44892883 C-87.62337589 72.21078754 -82.38440399 66.97899373 -77.1418457 61.75073242 C-71.07917952 55.70440894 -65.0274195 49.64733071 -58.98117834 43.58458585 C-53.78831286 38.37811387 -48.58963326 33.17750163 -43.38603395 27.98175746 C-40.2786249 24.87902732 -37.17328289 21.77430137 -34.0731678 18.66428185 C-31.16035481 15.7428131 -28.24032046 12.82876142 -25.31451225 9.92030907 C-24.24122382 8.85099216 -23.17048898 7.77910524 -22.10249329 6.70450211 C-20.64607442 5.23990458 -19.18076118 3.7848316 -17.71278381 2.33183289 C-16.89444093 1.51462108 -16.07609804 0.69740927 -15.23295689 -0.14456654 C-10.16926978 -4.35214195 -5.40524071 -3.03647346 0 0 Z " fill="#000000" transform="translate(271,208)"/>
<path d="M0 0 C1.98 0 3.96 0 6 0 C6 0.66 6 1.32 6 2 C7.32 2 8.64 2 10 2 C10 2.66 10 3.32 10 4 C11.32 4 12.64 4 14 4 C14 4.66 14 5.32 14 6 C15.32 6 16.64 6 18 6 C18 6.66 18 7.32 18 8 C19.32 8 20.64 8 22 8 C22 8.66 22 9.32 22 10 C22.928125 10.2165625 22.928125 10.2165625 23.875 10.4375 C26 11 26 11 28 12 C28 12.66 28 13.32 28 14 C28.928125 14.2165625 28.928125 14.2165625 29.875 14.4375 C32 15 32 15 34 16 C34 16.66 34 17.32 34 18 C34.66 18 35.32 18 36 18 C36 18.66 36 19.32 36 20 C36.66 20 37.32 20 38 20 C38 20.66 38 21.32 38 22 C38.66 22 39.32 22 40 22 C40 22.66 40 23.32 40 24 C40.66 24 41.32 24 42 24 C42 24.66 42 25.32 42 26 C42.66 26 43.32 26 44 26 C44 26.66 44 27.32 44 28 C44.66 28 45.32 28 46 28 C46 28.66 46 29.32 46 30 C46.66 30 47.32 30 48 30 C48 30.66 48 31.32 48 32 C48.66 32 49.32 32 50 32 C50 32.66 50 33.32 50 34 C50.66 34 51.32 34 52 34 C52 34.66 52 35.32 52 36 C52.66 36 53.32 36 54 36 C54 36.66 54 37.32 54 38 C54.66 38 55.32 38 56 38 C56 38.66 56 39.32 56 40 C56.66 40 57.32 40 58 40 C58 41.32 58 42.64 58 44 C58.66 44 59.32 44 60 44 C60 44.66 60 45.32 60 46 C60.66 46 61.32 46 62 46 C62 46.66 62 47.32 62 48 C62.66 48 63.32 48 64 48 C64 49.32 64 50.64 64 52 C64.66 52 65.32 52 66 52 C72 62.2 72 62.2 72 68 C72.66 68 73.32 68 74 68 C74.20496094 68.85464844 74.40992188 69.70929688 74.62109375 70.58984375 C75.02521484 72.24693359 75.02521484 72.24693359 75.4375 73.9375 C75.70433594 75.03964844 75.97117187 76.14179687 76.24609375 77.27734375 C76.72995725 79.89421254 76.72995725 79.89421254 78 81 C78.33333333 83.33333333 78.66666667 85.66666667 79 88 C79.33 88.33 79.66 88.66 80 89 C80.32097751 91.31817089 80.51220956 93.63779357 80.71875 95.96875 C80.79065837 97.99180593 80.79065837 97.99180593 82 99 C82.09881824 101.06840874 82.12555715 103.14026116 82.12584114 105.21102905 C82.12729458 105.87034904 82.12874802 106.52966902 82.13024551 107.2089684 C82.13393104 109.44581261 82.13040737 111.68258975 82.12698364 113.91943359 C82.12813446 115.52825646 82.12972171 117.13707906 82.13171089 118.74590111 C82.13590969 123.188332 82.13381105 127.63074158 82.13072467 132.07317257 C82.12847302 136.85576972 82.131949 141.63836307 82.13470459 146.42095947 C82.13916381 155.79856031 82.13818515 165.17615317 82.13529195 174.55375433 C82.13303851 182.17147735 82.13272513 189.78919813 82.13381577 197.40692139 C82.13404561 199.02987139 82.13404561 199.02987139 82.13428011 200.68560827 C82.13459982 202.883231 82.13492403 205.08085374 82.1352527 207.27847648 C82.13810794 227.91176563 82.13481978 248.54505034 82.12945233 269.17833877 C82.12498425 286.90339994 82.12576018 304.62845457 82.13037109 322.35351562 C82.13571609 342.91025462 82.13783324 363.46698973 82.13475883 384.02372932 C82.13444026 386.21351242 82.13412589 388.40329552 82.13381577 390.59307861 C82.13366149 391.67064592 82.13350721 392.74821322 82.13334826 393.85843408 C82.13248288 401.47176543 82.13394644 409.08509432 82.13629532 416.69842529 C82.13909269 425.96969681 82.1383564 435.24095986 82.13301457 444.5122304 C82.1303767 449.24743904 82.12937394 453.98263354 82.13266373 458.7178421 C82.13562494 463.04538682 82.13403683 467.37290416 82.12868617 471.70044637 C82.12756123 473.27310193 82.12815485 474.84575976 82.13056196 476.41841388 C82.13356508 478.54196667 82.1305224 480.66542334 82.12584114 482.78897095 C82.12567879 483.97277658 82.12551644 485.15658222 82.12534916 486.37626076 C82 489 82 489 81 490 C80.78936893 492.50416935 80.62427923 494.99140081 80.5 497.5 C80.13513514 504.86486486 80.13513514 504.86486486 79 506 C78.76924918 507.34747084 78.58846937 508.70377565 78.4375 510.0625 C78.293125 511.361875 78.14875 512.66125 78 514 C77.34 514 76.68 514 76 514 C76 515.98 76 517.96 76 520 C75.34 520 74.68 520 74 520 C74 521.98 74 523.96 74 526 C73.34 526 72.68 526 72 526 C72 527.32 72 528.64 72 530 C71.34 530 70.68 530 70 530 C70 531.32 70 532.64 70 534 C69.34 534 68.68 534 68 534 C68 535.32 68 536.64 68 538 C67.34 538 66.68 538 66 538 C66 539.32 66 540.64 66 542 C65.34 542 64.68 542 64 542 C64 543.32 64 544.64 64 546 C63.34 546 62.68 546 62 546 C62 546.66 62 547.32 62 548 C61.34 548 60.68 548 60 548 C60 548.66 60 549.32 60 550 C59.34 550 58.68 550 58 550 C58 551.32 58 552.64 58 554 C57.34 554 56.68 554 56 554 C56 554.66 56 555.32 56 556 C55.34 556 54.68 556 54 556 C54 556.66 54 557.32 54 558 C53.34 558 52.68 558 52 558 C52 558.66 52 559.32 52 560 C51.34 560 50.68 560 50 560 C50 560.66 50 561.32 50 562 C49.34 562 48.68 562 48 562 C48 562.66 48 563.32 48 564 C47.34 564 46.68 564 46 564 C46 564.66 46 565.32 46 566 C45.34 566 44.68 566 44 566 C44 566.66 44 567.32 44 568 C43.34 568 42.68 568 42 568 C42 568.66 42 569.32 42 570 C41.34 570 40.68 570 40 570 C40 570.66 40 571.32 40 572 C39.34 572 38.68 572 38 572 C38 572.66 38 573.32 38 574 C35 576 35 576 32 576 C32 576.66 32 577.32 32 578 C31.34 578 30.68 578 30 578 C30 578.66 30 579.32 30 580 C27 582 27 582 24 582 C24 582.66 24 583.32 24 584 C22.68 584 21.36 584 20 584 C20 584.66 20 585.32 20 586 C18.68 586 17.36 586 16 586 C16 586.66 16 587.32 16 588 C15.34 588 14.68 588 14 588 C14 588.66 14 589.32 14 590 C10.49223216 591.60355101 7.85645121 592.22036864 4 592 C4 592.66 4 593.32 4 594 C2.02 594 0.04 594 -2 594 C-2 594.66 -2 595.32 -2 596 C-3.98 596 -5.96 596 -8 596 C-8 596.66 -8 597.32 -8 598 C-9.134375 598.144375 -10.26875 598.28875 -11.4375 598.4375 C-14.80777201 598.61171478 -14.80777201 598.61171478 -16 600 C-19.10042773 600.32446337 -22.2020725 600.51334441 -25.3125 600.71875 C-27.91596752 600.70607799 -27.91596752 600.70607799 -29 602 C-31.15177101 602.09893246 -33.30686287 602.12555738 -35.46090698 602.12584114 C-36.14724095 602.12729458 -36.83357491 602.12874802 -37.54070687 602.13024551 C-39.86944465 602.13393134 -42.19811803 602.13040722 -44.52685547 602.12698364 C-46.20167513 602.12813444 -47.87649453 602.12972169 -49.5513134 602.13171089 C-54.17616919 602.13590986 -58.80100451 602.13381097 -63.4258604 602.13072467 C-68.40477835 602.12847308 -73.38369263 602.13194897 -78.36260986 602.13470459 C-88.12522609 602.13916388 -97.88783465 602.13818512 -107.65045118 602.13529195 C-115.5809126 602.13303854 -123.51137185 602.13272512 -131.4418335 602.13381577 C-133.13139217 602.13404561 -133.13139217 602.13404561 -134.85508335 602.13428011 C-137.14289808 602.13459982 -139.43071282 602.13492403 -141.71852756 602.1352527 C-163.19877861 602.13810796 -184.67902541 602.13481975 -206.15927577 602.12945233 C-224.61204536 602.12498425 -243.06480865 602.12576017 -261.51757812 602.13037109 C-282.91812049 602.13571605 -304.31865911 602.13783326 -325.71920204 602.13475883 C-327.99885686 602.13444026 -330.27851168 602.13412589 -332.5581665 602.13381577 C-333.67995957 602.13366149 -334.80175264 602.13350721 -335.95753944 602.13334826 C-343.88345738 602.13248287 -351.80937295 602.13394646 -359.73529053 602.13629532 C-369.38717906 602.13909265 -379.03905946 602.13835649 -388.69094706 602.13301457 C-393.6205811 602.13037664 -398.55020155 602.12937403 -403.47983551 602.13266373 C-407.98502044 602.13562482 -412.49017906 602.13403703 -416.99536157 602.12868617 C-418.63261967 602.12756118 -420.26987996 602.12815496 -421.90713668 602.13056196 C-424.11782123 602.13356482 -426.32841345 602.13052267 -428.53909302 602.12584114 C-429.77150286 602.12567879 -431.0039127 602.12551644 -432.27366829 602.12534916 C-435 602 -435 602 -436 601 C-438.32986123 600.79031249 -440.66444036 600.63184611 -443 600.5 C-449.88888889 600.11111111 -449.88888889 600.11111111 -451 599 C-451.969375 598.896875 -452.93875 598.79375 -453.9375 598.6875 C-458.94282137 598.06183483 -463.40364802 595.98836152 -468 594 C-468 593.34 -468 592.68 -468 592 C-469.0828125 592.061875 -469.0828125 592.061875 -470.1875 592.125 C-473.20729369 591.99078695 -475.26935729 591.24829381 -478 590 C-478 589.34 -478 588.68 -478 588 C-478.61875 587.855625 -479.2375 587.71125 -479.875 587.5625 C-482 587 -482 587 -484 586 C-484 585.34 -484 584.68 -484 584 C-485.32 584 -486.64 584 -488 584 C-488 583.34 -488 582.68 -488 582 C-489.98 581.34 -491.96 580.68 -494 580 C-494 579.34 -494 578.68 -494 578 C-494.66 578 -495.32 578 -496 578 C-496 577.34 -496 576.68 -496 576 C-496.61875 575.855625 -497.2375 575.71125 -497.875 575.5625 C-500 575 -500 575 -502 574 C-502 573.34 -502 572.68 -502 572 C-502.66 572 -503.32 572 -504 572 C-504 571.34 -504 570.68 -504 570 C-504.66 570 -505.32 570 -506 570 C-506 569.34 -506 568.68 -506 568 C-506.66 568 -507.32 568 -508 568 C-508 567.34 -508 566.68 -508 566 C-508.66 566 -509.32 566 -510 566 C-510 565.34 -510 564.68 -510 564 C-510.66 564 -511.32 564 -512 564 C-512 563.34 -512 562.68 -512 562 C-512.66 562 -513.32 562 -514 562 C-514 561.34 -514 560.68 -514 560 C-514.66 560 -515.32 560 -516 560 C-516 559.34 -516 558.68 -516 558 C-516.66 558 -517.32 558 -518 558 C-518.99 556.515 -518.99 556.515 -520 555 C-519.67 554.01 -519.34 553.02 -519 552 C-518.23816406 552.845625 -517.47632813 553.69125 -516.69140625 554.5625 C-494.46520164 579.07323549 -466.47532309 595.42447068 -433 598 C-421.06881582 598.50734155 -409.11996951 598.40767864 -397.18057942 598.37751496 C-392.33121904 598.3685851 -387.48188285 598.37714145 -382.63252258 598.38337708 C-373.15955587 598.39281558 -363.68666589 598.38630933 -354.21370491 598.37411413 C-343.1643178 598.36042451 -332.11494851 598.36213804 -321.06555507 598.36424746 C-301.34332964 598.36742997 -281.62114046 598.35581102 -261.89892578 598.33618164 C-242.79246925 598.31717032 -223.68605516 598.31009774 -204.57958984 598.31567383 C-183.73177262 598.3217402 -162.88397401 598.32153963 -142.03615832 598.310188 C-139.81073427 598.3089808 -137.58531022 598.30777482 -135.35988617 598.30657005 C-134.26515732 598.30596651 -133.17042847 598.30536298 -132.04252602 598.30474115 C-124.35286483 598.30087282 -116.66321059 598.30125136 -108.97354889 598.3031559 C-99.59702058 598.30528431 -90.2205293 598.30000471 -80.8440114 598.28554235 C-76.06629516 598.27833057 -71.28863268 598.27419372 -66.51091194 598.27878571 C-62.12779524 598.2828958 -57.74478899 598.27760218 -53.36168894 598.26515963 C-51.78597202 598.26225906 -50.2102445 598.26262394 -48.63453045 598.26680271 C-35.4328806 598.29860352 -21.99216191 597.77427968 -9.3125 593.75 C-8.60955811 593.53384033 -7.90661621 593.31768066 -7.18237305 593.0949707 C7.93818266 588.28131065 22.93181853 580.35044761 35 570 C35.80953125 569.31164062 36.6190625 568.62328125 37.453125 567.9140625 C54.52173841 552.99211519 66.67779069 534.6440266 73.3125 512.9375 C73.67637817 511.75196533 73.67637817 511.75196533 74.04760742 510.54248047 C77.55334363 498.41057609 78.29556306 486.36036973 78.26742554 473.80332947 C78.27116978 472.2018141 78.27577436 470.60030055 78.28115618 468.99878985 C78.29330614 464.63154017 78.29313524 460.26436755 78.29076743 455.89710486 C78.29035722 451.17365014 78.30141784 446.45021947 78.31088257 441.72677612 C78.32744985 432.4848131 78.33299019 423.24287559 78.33410732 414.00089895 C78.33505989 406.48278417 78.33918056 398.96467776 78.34550858 391.44656563 C78.3631098 370.09838202 78.37234927 348.75021846 78.37084763 327.40202754 C78.37076772 326.25269097 78.3706878 325.1033544 78.37060547 323.91918945 C78.37052371 322.76843804 78.37044195 321.61768662 78.37035771 320.43206394 C78.36954526 301.7936714 78.38867544 283.15535975 78.4168822 264.51699059 C78.44566301 245.34694635 78.45941962 226.17694148 78.45769465 207.0068751 C78.45703251 196.25737085 78.46244716 185.50795141 78.48405075 174.75846672 C78.50233112 165.60437594 78.50655392 156.4504084 78.4930319 147.2963072 C78.48653653 142.63351432 78.48625965 137.97095739 78.5037384 133.30818748 C78.63484719 95.96592922 73.58368043 62.94235848 48 34 C47.31429932 33.22148682 47.31429932 33.22148682 46.61474609 32.42724609 C35.30675501 19.84286801 21.45069012 10.65939805 6.1953125 3.5234375 C3 2 3 2 0 0 Z " fill="#0D0901" transform="translate(572,34)"/>
<path d="M0 0 C1.98 0 3.96 0 6 0 C6 0.66 6 1.32 6 2 C7.32 2 8.64 2 10 2 C10 2.66 10 3.32 10 4 C11.32 4 12.64 4 14 4 C14 4.66 14 5.32 14 6 C15.32 6 16.64 6 18 6 C18 6.66 18 7.32 18 8 C19.32 8 20.64 8 22 8 C22 8.66 22 9.32 22 10 C22.61875 10.144375 23.2375 10.28875 23.875 10.4375 C26 11 26 11 28 12 C28 12.66 28 13.32 28 14 C28.61875 14.144375 29.2375 14.28875 29.875 14.4375 C32 15 32 15 34 16 C34 16.66 34 17.32 34 18 C34.66 18 35.32 18 36 18 C36 18.66 36 19.32 36 20 C36.66 20 37.32 20 38 20 C38 20.66 38 21.32 38 22 C38.66 22 39.32 22 40 22 C40 22.66 40 23.32 40 24 C40.66 24 41.32 24 42 24 C42 24.66 42 25.32 42 26 C42.66 26 43.32 26 44 26 C44 26.66 44 27.32 44 28 C44.66 28 45.32 28 46 28 C46 28.66 46 29.32 46 30 C46.66 30 47.32 30 48 30 C48 30.66 48 31.32 48 32 C48.66 32 49.32 32 50 32 C50 32.66 50 33.32 50 34 C50.66 34 51.32 34 52 34 C52 34.66 52 35.32 52 36 C52.66 36 53.32 36 54 36 C54 36.66 54 37.32 54 38 C54.66 38 55.32 38 56 38 C56 38.66 56 39.32 56 40 C56.66 40 57.32 40 58 40 C58 41.32 58 42.64 58 44 C58.66 44 59.32 44 60 44 C60 44.66 60 45.32 60 46 C60.66 46 61.32 46 62 46 C62 46.66 62 47.32 62 48 C62.66 48 63.32 48 64 48 C64 49.32 64 50.64 64 52 C64.66 52 65.32 52 66 52 C72 62.2 72 62.2 72 68 C72.66 68 73.32 68 74 68 C74.20496094 68.85464844 74.40992188 69.70929688 74.62109375 70.58984375 C74.89050781 71.69457031 75.15992188 72.79929687 75.4375 73.9375 C75.70433594 75.03964844 75.97117187 76.14179687 76.24609375 77.27734375 C76.72995725 79.89421254 76.72995725 79.89421254 78 81 C78.33333333 83.33333333 78.66666667 85.66666667 79 88 C79.33 88.33 79.66 88.66 80 89 C80.32097751 91.31817089 80.51220956 93.63779357 80.71875 95.96875 C80.79065837 97.99180593 80.79065837 97.99180593 82 99 C82.09791345 101.06936506 82.12371204 103.14214228 82.12304783 105.21382236 C82.12420167 105.87344195 82.12535552 106.53306153 82.12654433 107.21266958 C82.12921739 109.4505252 82.12468321 111.68831066 82.12025452 113.92616272 C82.12069008 115.53569809 82.12156471 117.14523339 82.12284368 118.75476831 C82.12509161 123.19913171 82.12106332 127.64347126 82.11606562 132.08783162 C82.11176555 136.87245316 82.11320723 141.65707324 82.1139679 146.44169617 C82.11449341 154.73851404 82.11134372 163.03532407 82.10573006 171.33213997 C82.09761881 183.32808947 82.09500022 195.32403516 82.09374207 207.31998711 C82.09155095 226.78046556 82.08488927 246.24093983 82.07543945 265.70141602 C82.06626686 284.61059549 82.05918528 303.51977383 82.05493164 322.42895508 C82.05466892 323.59362063 82.05440619 324.75828618 82.05413551 325.95824463 C82.05283051 331.80076178 82.0515668 337.64327893 82.05032361 343.48579609 C82.03994915 391.99053362 82.02232923 440.49526661 82 489 C81.34 489.33 80.68 489.66 80 490 C80 361.63 80 233.26 80 101 C79.34 101 78.68 101 78 101 C77.78085937 99.741875 77.56171875 98.48375 77.3359375 97.1875 C73.01002935 73.39851075 64.13611487 52.25449713 48 34 C47.54286621 33.48099121 47.08573242 32.96198242 46.61474609 32.42724609 C35.30675501 19.84286801 21.45069012 10.65939805 6.1953125 3.5234375 C3 2 3 2 0 0 Z " fill="#221A00" transform="translate(572,34)"/>
<path d="M0 0 C0.99 0.495 0.99 0.495 2 1 C1.42462557 1.57260905 0.84925114 2.14521811 0.25644112 2.73517895 C-13.73941843 16.66480221 -27.72697953 30.60271038 -41.70533562 44.5498991 C-48.46534699 51.29443779 -55.22814445 58.03613796 -61.99755859 64.77124023 C-67.89737037 70.64116206 -73.79190008 76.516328 -79.68013203 82.39786655 C-82.79844644 85.51226804 -85.91935231 88.62396946 -89.04659653 91.72940636 C-91.98984941 94.65230061 -94.92598939 97.58215439 -97.85682297 100.51749992 C-98.93376436 101.59361584 -100.0132802 102.66716242 -101.09554291 103.73792648 C-102.57324458 105.20069404 -104.04138972 106.67243969 -105.50753784 108.14677429 C-106.33162077 108.96809184 -107.1557037 109.78940939 -108.00475883 110.63561535 C-110.94761304 114.12293279 -111.90209154 116.92300693 -112.3125 121.4375 C-111.76627116 127.6645088 -108.81685868 131.55826671 -104.49012756 135.88409424 C-103.56622726 136.81500885 -102.64232697 137.74592346 -101.69042969 138.70504761 C-100.66884788 139.71920298 -99.64711429 140.73320547 -98.62524414 141.74707031 C-97.5469319 142.82781238 -96.46926589 143.90919956 -95.39219666 144.99118042 C-92.47346338 147.91929844 -89.54543176 150.83795 -86.61534429 153.75470066 C-83.54813242 156.81057725 -80.48865709 159.87418236 -77.42808533 162.93670654 C-72.28936501 168.07630898 -67.14470466 173.20990531 -61.99633789 178.33984375 C-56.04431306 184.27068538 -50.10118306 190.21032519 -44.16285998 196.15488362 C-38.447514 201.87592332 -32.7265158 207.59127677 -27.00271416 213.3038559 C-24.56764518 215.73428074 -22.13447042 218.16657898 -19.70277596 220.60037994 C-16.84035191 223.46468711 -13.97298248 226.32395048 -11.10170937 229.17938614 C-10.04865248 230.22819978 -8.99728728 231.27871509 -7.94774246 232.33104324 C-6.5154038 233.7666036 -5.07629823 235.19540277 -3.63685608 236.62384033 C-2.83326188 237.42538166 -2.02966768 238.22692299 -1.20172215 239.05275345 C1.695113 241.61477167 3.97860547 242.79107839 7.75 243.5625 C12.78879919 242.69040014 15.45546808 239.52476687 19 236 C19.75539063 235.25878906 20.51078125 234.51757812 21.2890625 233.75390625 C23.20888172 231.85104657 25.11141361 229.93379192 27 228 C27 231 27 231 25.83837891 232.51806641 C25.30647949 233.04062012 24.77458008 233.56317383 24.2265625 234.1015625 C23.6490625 234.67390625 23.0715625 235.24625 22.4765625 235.8359375 C21.86554688 236.42632812 21.25453125 237.01671875 20.625 237.625 C20.02171875 238.223125 19.4184375 238.82125 18.796875 239.4375 C12.98697473 245.14411315 12.98697473 245.14411315 8 245.625 C3.48911652 245.51728752 1.58047196 244.17584099 -1.66030884 241.10702515 C-2.53336292 240.28584576 -3.40641701 239.46466637 -4.30592728 238.61860275 C-5.19497128 237.75446384 -6.08401527 236.89032494 -7 236 C-7.83193249 235.19192524 -8.66386497 234.38385048 -9.52100754 233.5512886 C-12.17672079 230.93890573 -14.80837929 228.30416418 -17.43505859 225.66259766 C-18.43473164 224.66099952 -19.43463698 223.65963319 -20.43475342 222.65847778 C-22.56629392 220.52380658 -24.69627893 218.38760033 -26.82502365 216.25014114 C-30.19301685 212.86849963 -33.56493416 209.49078872 -36.93740845 206.11361694 C-44.08626198 198.95372533 -51.23084081 191.78957518 -58.375 184.625 C-66.1108678 176.86707186 -73.84749323 169.10990768 -81.58898795 161.35759389 C-84.94031353 158.00129445 -88.2891884 154.64257464 -91.63618922 151.28196263 C-93.71507501 149.19561583 -95.7960321 147.11134448 -97.87755585 145.02762985 C-99.30019186 143.60223172 -100.7203094 142.17432137 -102.14035034 140.74633789 C-103.4142865 139.47229599 -103.4142865 139.47229599 -104.71395874 138.17251587 C-105.44946646 137.43478754 -106.18497417 136.69705921 -106.94277 135.93697548 C-110.05001145 132.62214284 -110.05001145 132.62214284 -114 131 C-114.08139142 128.60347472 -114.14067009 126.20974564 -114.1875 123.8125 C-114.21263672 123.13896484 -114.23777344 122.46542969 -114.26367188 121.77148438 C-114.34924855 115.92374509 -112.73918737 112.94274101 -108.89732838 108.65123272 C-108.08154159 107.83728951 -107.2657548 107.02334631 -106.42524719 106.18473816 C-105.96940961 105.72719172 -105.51357202 105.26964529 -105.04392117 104.79823381 C-103.52397614 103.27500946 -101.9970219 101.7590176 -100.4699707 100.24291992 C-99.37551634 99.14903001 -98.2815028 98.05469891 -97.18789673 96.95996094 C-94.22362205 93.99511307 -91.25322687 91.03646683 -88.28168893 88.07890105 C-85.17511407 84.98483911 -82.07421202 81.88510245 -78.97270203 78.78596497 C-73.10129395 72.92076999 -67.22480679 67.06069141 -61.34647483 61.20243675 C-54.65334661 54.53167276 -47.96590485 47.85522053 -41.27893317 41.17828596 C-27.52560366 27.44585462 -13.76515422 13.72057791 0 0 Z " fill="#FCDE00" transform="translate(256,206)"/>
<path d="M0 0 C3.64093467 1.32397624 6.85385965 3.00610394 10.15625 5 C12.05718114 6.07777387 12.05718114 6.07777387 14.421875 6.96484375 C16.99169739 7.99666638 19.32277277 9.23387072 21.75 10.5625 C26.60712341 13.04211255 30.57823971 13.73765676 36 14 C36 14.66 36 15.32 36 16 C38.97 16.33 41.94 16.66 45 17 C45 17.66 45 18.32 45 19 C56.73215702 20.50318802 68.22338671 21.29537464 80.04641724 21.2784729 C81.67887674 21.28349227 83.31133379 21.28937276 84.94378746 21.29602563 C89.3725492 21.31164145 93.80124722 21.31524599 98.23003316 21.31667423 C103.02732558 21.32040093 107.82458432 21.33557224 112.62185669 21.34928894 C120.91454838 21.37146383 129.20722794 21.38653558 137.49994278 21.39665604 C149.48952049 21.41129862 161.47905587 21.43685077 173.4686086 21.46498732 C192.92518745 21.51035442 212.38177243 21.5470107 231.83837891 21.578125 C250.7283638 21.60835198 269.61833373 21.64272119 288.50830078 21.68261719 C290.25756065 21.68630951 290.25756065 21.68630951 292.0421591 21.69007643 C297.89304375 21.70245183 303.74392823 21.71490821 309.59481263 21.72740483 C358.06318752 21.83082152 406.53158107 21.92007439 455 22 C455 22.33 455 22.66 455 23 C405.01978102 23.06874497 355.03956683 23.12156877 305.05930983 23.15319599 C299.15168173 23.15694787 293.24405373 23.16083086 287.33642578 23.16479492 C285.57235584 23.16597532 285.57235584 23.16597532 283.77264813 23.16717956 C264.75839082 23.18021489 245.74416087 23.20385838 226.72991976 23.23145839 C207.20321061 23.25956478 187.67651574 23.27618731 168.14978719 23.28226548 C156.11170114 23.28637108 144.07369243 23.29931374 132.0356302 23.3237494 C123.76806498 23.33967126 115.50053943 23.34438583 107.23296002 23.34050413 C102.47105278 23.33859258 97.7092802 23.34141396 92.94739723 23.35761642 C46.53377345 23.50769147 46.53377345 23.50769147 30.125 16.75 C29.35381836 16.44916504 28.58263672 16.14833008 27.78808594 15.83837891 C18.03868107 11.95274653 8.20374359 7.64112576 0 1 C0 0.67 0 0.34 0 0 Z " fill="#FEDC00" transform="translate(79,610)"/>
<path d="M0 0 C1.8871875 0.0309375 1.8871875 0.0309375 3.8125 0.0625 C3.4825 1.0525 3.1525 2.0425 2.8125 3.0625 C1.678125 3.206875 0.54375 3.35125 -0.625 3.5 C-3.99527201 3.67421478 -3.99527201 3.67421478 -5.1875 5.0625 C-8.28792773 5.38696337 -11.3895725 5.57584441 -14.5 5.78125 C-17.10346752 5.76857799 -17.10346752 5.76857799 -18.1875 7.0625 C-20.29854637 7.16047106 -22.41294293 7.18621177 -24.52626133 7.18554783 C-25.1993879 7.18670167 -25.87251447 7.18785552 -26.56603882 7.18904433 C-28.84984118 7.19171751 -31.13357479 7.18718312 -33.41737366 7.18275452 C-35.05990743 7.18319008 -36.70244113 7.1840647 -38.34497446 7.18534368 C-42.88055027 7.18759166 -47.4161027 7.18356325 -51.95167553 7.17856562 C-56.8344575 7.17426562 -61.71723804 7.17570722 -66.60002136 7.1764679 C-75.06708656 7.17699342 -83.53414408 7.17384368 -92.00120735 7.16823006 C-104.24330956 7.16011886 -116.48540804 7.15750023 -128.72751265 7.15624207 C-148.58730546 7.15405094 -168.44709418 7.14738924 -188.30688477 7.13793945 C-207.60408508 7.12876689 -226.90128428 7.12168529 -246.19848633 7.11743164 C-247.38704784 7.11716892 -248.57560936 7.11690619 -249.80018789 7.11663551 C-255.76257761 7.11533051 -261.72496734 7.1140668 -267.68735707 7.11282361 C-317.18740754 7.10244912 -366.68745357 7.08482918 -416.1875 7.0625 C-416.1875 6.7325 -416.1875 6.4025 -416.1875 6.0625 C-286.4975 5.7325 -156.8075 5.4025 -23.1875 5.0625 C-23.1875 4.4025 -23.1875 3.7425 -23.1875 3.0625 C-22.06730469 2.92972656 -20.94710938 2.79695312 -19.79296875 2.66015625 C-18.32029271 2.48193431 -16.84763753 2.30353989 -15.375 2.125 C-14.26801758 1.99448242 -14.26801758 1.99448242 -13.13867188 1.86132812 C-8.64805926 1.31270124 -4.51005928 -0.0739354 0 0 Z " fill="#211900" transform="translate(561.1875,628.9375)"/>
<path d="M0 0 C1.98 0 3.96 0 6 0 C6 0.66 6 1.32 6 2 C7.32 2 8.64 2 10 2 C10 2.66 10 3.32 10 4 C11.32 4 12.64 4 14 4 C14 4.66 14 5.32 14 6 C15.32 6 16.64 6 18 6 C18 6.66 18 7.32 18 8 C19.32 8 20.64 8 22 8 C22 8.66 22 9.32 22 10 C22.61875 10.144375 23.2375 10.28875 23.875 10.4375 C26 11 26 11 28 12 C28 12.66 28 13.32 28 14 C28.61875 14.144375 29.2375 14.28875 29.875 14.4375 C32 15 32 15 34 16 C34 16.66 34 17.32 34 18 C34.66 18 35.32 18 36 18 C36 18.66 36 19.32 36 20 C36.66 20 37.32 20 38 20 C38 20.66 38 21.32 38 22 C38.66 22 39.32 22 40 22 C40 22.66 40 23.32 40 24 C40.66 24 41.32 24 42 24 C42 24.66 42 25.32 42 26 C42.66 26 43.32 26 44 26 C44 26.66 44 27.32 44 28 C44.66 28 45.32 28 46 28 C46 28.66 46 29.32 46 30 C46.66 30 47.32 30 48 30 C48 30.66 48 31.32 48 32 C48.66 32 49.32 32 50 32 C50 32.66 50 33.32 50 34 C50.66 34 51.32 34 52 34 C52 34.66 52 35.32 52 36 C52.66 36 53.32 36 54 36 C54 36.66 54 37.32 54 38 C54.66 38 55.32 38 56 38 C56 38.66 56 39.32 56 40 C56.66 40 57.32 40 58 40 C58 41.32 58 42.64 58 44 C58.66 44 59.32 44 60 44 C60 44.66 60 45.32 60 46 C60.66 46 61.32 46 62 46 C62 46.66 62 47.32 62 48 C62.66 48 63.32 48 64 48 C64 49.32 64 50.64 64 52 C64.66 52 65.32 52 66 52 C72 62.2 72 62.2 72 68 C72.66 68 73.32 68 74 68 C74.20496094 68.85464844 74.40992188 69.70929688 74.62109375 70.58984375 C74.89050781 71.69457031 75.15992188 72.79929687 75.4375 73.9375 C75.70433594 75.03964844 75.97117187 76.14179687 76.24609375 77.27734375 C76.72995725 79.89421254 76.72995725 79.89421254 78 81 C79.01329994 87.30497742 79.10273214 93.63060749 79 100 C78.67 100 78.34 100 78 100 C77.87995605 99.41210693 77.75991211 98.82421387 77.63623047 98.21850586 C75.09462371 85.95877994 72.34765698 74.37961129 67 63 C66.56929199 62.07912598 66.56929199 62.07912598 66.12988281 61.13964844 C53.68582084 35.00039178 32.21769265 15.69584534 6.1953125 3.5234375 C3 2 3 2 0 0 Z " fill="#181201" transform="translate(572,34)"/>
<path d="M0 0 C2.57646114 2.55782489 5.1215168 5.12803633 7.62109375 7.76171875 C14.77232805 15.24482932 22.34822002 21.33669221 31 27 C31.92941406 27.62519531 32.85882813 28.25039063 33.81640625 28.89453125 C49.64571494 38.86947257 68.46071548 44.40178582 87 46 C83.286007 48.47599533 81.29282091 48.23739325 76.875 48.1875 C75.61429687 48.18105469 74.35359375 48.17460938 73.0546875 48.16796875 C70 48 70 48 69 47 C68.030625 46.896875 67.06125 46.79375 66.0625 46.6875 C61.05717863 46.06183483 56.59635198 43.98836152 52 42 C52 41.34 52 40.68 52 40 C51.278125 40.04125 50.55625 40.0825 49.8125 40.125 C46.79270631 39.99078695 44.73064271 39.24829381 42 38 C42 37.34 42 36.68 42 36 C41.38125 35.855625 40.7625 35.71125 40.125 35.5625 C38 35 38 35 36 34 C36 33.34 36 32.68 36 32 C34.68 32 33.36 32 32 32 C32 31.34 32 30.68 32 30 C30.02 29.34 28.04 28.68 26 28 C26 27.34 26 26.68 26 26 C25.34 26 24.68 26 24 26 C24 25.34 24 24.68 24 24 C23.38125 23.855625 22.7625 23.71125 22.125 23.5625 C20 23 20 23 18 22 C18 21.34 18 20.68 18 20 C17.34 20 16.68 20 16 20 C16 19.34 16 18.68 16 18 C15.34 18 14.68 18 14 18 C14 17.34 14 16.68 14 16 C13.34 16 12.68 16 12 16 C12 15.34 12 14.68 12 14 C11.34 14 10.68 14 10 14 C10 13.34 10 12.68 10 12 C9.34 12 8.68 12 8 12 C8 11.34 8 10.68 8 10 C7.34 10 6.68 10 6 10 C6 9.34 6 8.68 6 8 C5.34 8 4.68 8 4 8 C4 7.34 4 6.68 4 6 C3.34 6 2.68 6 2 6 C0 3 0 3 0 0 Z " fill="#191301" transform="translate(52,586)"/>
<path d="M0 0 C0.99 0.33 1.98 0.66 3 1 C2.48050781 1.44730469 1.96101563 1.89460937 1.42578125 2.35546875 C0.72839844 2.96003906 0.03101563 3.56460938 -0.6875 4.1875 C-1.37199219 4.77917969 -2.05648437 5.37085938 -2.76171875 5.98046875 C-5.26267536 8.23700378 -7.62511332 10.61314904 -10 13 C-11.23342493 14.23402292 -12.467176 15.4677199 -13.70117188 16.70117188 C-14.72748718 17.72748718 -14.72748718 17.72748718 -15.77453613 18.77453613 C-31.18302409 34.18302409 -46.59151204 49.59151204 -62 65 C-62.66 64.67 -63.32 64.34 -64 64 C-42.88 42.88 -21.76 21.76 0 0 Z " fill="#0B0600" transform="translate(233,231)"/>
<path d="M0 0 C0 5.32715919 -1.88646003 8.84861337 -5 13 C-5.72351427 14.98014432 -6.40265389 16.97821315 -7 19 C-7.66 19 -8.32 19 -9 19 C-9.19335938 19.60328125 -9.38671875 20.2065625 -9.5859375 20.828125 C-9.84632812 21.62734375 -10.10671875 22.4265625 -10.375 23.25 C-10.63023438 24.03890625 -10.88546875 24.8278125 -11.1484375 25.640625 C-11.95173667 27.86627958 -12.89711662 29.90931672 -14 32 C-14.99 32 -15.98 32 -17 32 C-17 31.01 -17 30.02 -17 29 C-16.34 29 -15.68 29 -15 29 C-15 27.02 -15 25.04 -15 23 C-14.34 23 -13.68 23 -13 23 C-13 21.68 -13 20.36 -13 19 C-12.34 19 -11.68 19 -11 19 C-11 17.68 -11 16.36 -11 15 C-10.34 15 -9.68 15 -9 15 C-9 13.68 -9 12.36 -9 11 C-8.34 11 -7.68 11 -7 11 C-6.855625 10.38125 -6.71125 9.7625 -6.5625 9.125 C-6 7 -6 7 -5 5 C-4.34 5 -3.68 5 -3 5 C-3 3.68 -3 2.36 -3 1 C-2.01 0.67 -1.02 0.34 0 0 Z " fill="#C7AF01" transform="translate(49,79)"/>
<path d="M0 0 C0.66 0 1.32 0 2 0 C3.5078125 2.1171875 3.5078125 2.1171875 5.125 4.875 C5.66382813 5.77992188 6.20265625 6.68484375 6.7578125 7.6171875 C8 10 8 10 8 12 C8.99 12.33 9.98 12.66 11 13 C12.00117423 14.99941246 13.000936 16.99953227 14 19 C15.75769015 21.27879686 17.70461127 23.3539177 19.6875 25.4375 C20.21988281 26.0044458 20.75226562 26.5713916 21.30078125 27.15551758 C27.98387821 34.54276601 27.98387821 34.54276601 36.15625 39.98828125 C38 41 38 41 39 44 C34.35014977 42.54745899 31.27403566 39.85747642 27.8125 36.5625 C27.24370117 36.02608887 26.67490234 35.48967773 26.08886719 34.93701172 C15.64454129 24.98180597 4.9814632 13.85469451 0 0 Z " fill="#F4DD01" transform="translate(40,566)"/>
<path d="M0 0 C3.64093467 1.32397624 6.85385965 3.00610394 10.15625 5 C12.05718114 6.07777387 12.05718114 6.07777387 14.421875 6.96484375 C16.99169739 7.99666638 19.32277277 9.23387072 21.75 10.5625 C26.60712341 13.04211255 30.57823971 13.73765676 36 14 C36 14.66 36 15.32 36 16 C38.97 16.33 41.94 16.66 45 17 C45 17.66 45 18.32 45 19 C39.82813336 20.83148597 35.91253879 18.88805771 31.0625 17 C30.22364258 16.68111816 29.38478516 16.36223633 28.52050781 16.03369141 C18.48842988 12.14124517 8.42027749 7.81641511 0 1 C0 0.67 0 0.34 0 0 Z " fill="#F5D400" transform="translate(79,610)"/>
<path d="M0 0 C1.80345593 2.70518389 3.20739611 5.42306557 4.61523438 8.34570312 C8.49349687 16.37978268 12.81592909 23.72024084 18 31 C17.34 31.33 16.68 31.66 16 32 C16 31.34 16 30.68 16 30 C15.34 30 14.68 30 14 30 C14 29.34 14 28.68 14 28 C13.34 28 12.68 28 12 28 C11.34 26.02 10.68 24.04 10 22 C9.34 22 8.68 22 8 22 C8 20.68 8 19.36 8 18 C7.34 18 6.68 18 6 18 C6 16.68 6 15.36 6 14 C5.34 14 4.68 14 4 14 C4 12.68 4 11.36 4 10 C3.34 10 2.68 10 2 10 C2 8.68 2 7.36 2 6 C1.34 6 0.68 6 0 6 C0 4.02 0 2.04 0 0 Z " fill="#1A1401" transform="translate(34,554)"/>
<path d="M0 0 C6.30045713 0.14001016 12.5362654 1.2725586 18.75 2.25 C13.3557607 5.84615954 5.52901331 4.9414283 -0.7265625 3.796875 C-2.625 3.25 -2.625 3.25 -5.25 2.25 C-3.25 0.25 -3.25 0.25 0 0 Z " fill="#261D01" transform="translate(120.25,629.75)"/>
<path d="M0 0 C5.33333333 5.33333333 10.66666667 10.66666667 16 16 C15.34 16.33 14.68 16.66 14 17 C13.34 16.67 12.68 16.34 12 16 C12 15.34 12 14.68 12 14 C11.34 14 10.68 14 10 14 C10 13.34 10 12.68 10 12 C9.34 12 8.68 12 8 12 C8 11.34 8 10.68 8 10 C7.34 10 6.68 10 6 10 C6 9.34 6 8.68 6 8 C5.34 8 4.68 8 4 8 C4 7.34 4 6.68 4 6 C3.34 6 2.68 6 2 6 C0 3 0 3 0 0 Z " fill="#100D00" transform="translate(52,586)"/>
<path d="M0 0 C0.66 0.33 1.32 0.66 2 1 C3.21386936 4.64160808 2.6674695 5.33165469 1.0625 8.6875 C0.68222656 9.49574219 0.30195312 10.30398437 -0.08984375 11.13671875 C-0.39019531 11.75160156 -0.69054688 12.36648437 -1 13 C-1.99 13 -2.98 13 -4 13 C-4 12.01 -4 11.02 -4 10 C-3.34 10 -2.68 10 -2 10 C-2 8.02 -2 6.04 -2 4 C-1.34 4 -0.68 4 0 4 C0 2.68 0 1.36 0 0 Z " fill="#AC9501" transform="translate(36,98)"/>
<path d="M0 0 C1.4540625 0.0309375 1.4540625 0.0309375 2.9375 0.0625 C2.9375 0.3925 2.9375 0.7225 2.9375 1.0625 C1.2875 1.0625 -0.3625 1.0625 -2.0625 1.0625 C-2.0625 1.7225 -2.0625 2.3825 -2.0625 3.0625 C-7.04479776 4.97876837 -11.78934667 5.6172115 -17.0625 6.0625 C-17.0625 5.4025 -17.0625 4.7425 -17.0625 4.0625 C-15.0825 4.0625 -13.1025 4.0625 -11.0625 4.0625 C-11.0625 3.4025 -11.0625 2.7425 -11.0625 2.0625 C-9.3609375 1.8459375 -9.3609375 1.8459375 -7.625 1.625 C-3.97252634 1.04829363 -3.54680005 0.07238367 0 0 Z " fill="#8D7C02" transform="translate(125.0625,27.9375)"/>
<path d="M0 0 C1.60897713 4.02244283 0.41146798 7.04788966 -1 11 C-2.625 13.4375 -2.625 13.4375 -4 15 C-4.20705455 9.92716361 -3.72487541 5.79132057 -2 1 C-1.34 0.67 -0.68 0.34 0 0 Z " fill="#978801" transform="translate(32,113)"/>
<path d="M0 0 C0.99 0.33 1.98 0.66 3 1 C2.67 1.66 2.34 2.32 2 3 C1.34 3.144375 0.68 3.28875 0 3.4375 C-0.66 3.623125 -1.32 3.80875 -2 4 C-2.33 4.99 -2.66 5.98 -3 7 C-5.31 7.33 -7.62 7.66 -10 8 C-10 7.34 -10 6.68 -10 6 C-8.68 6 -7.36 6 -6 6 C-6 5.34 -6 4.68 -6 4 C-3 2 -3 2 0 2 C0 1.34 0 0.68 0 0 Z " fill="#7A6B01" transform="translate(90,40)"/>
<path d="M0 0 C0.66 0 1.32 0 2 0 C2 1.32 2 2.64 2 4 C1.34 4 0.68 4 0 4 C0 5.32 0 6.64 0 8 C-0.66 8 -1.32 8 -2 8 C-2 8.66 -2 9.32 -2 10 C-2.66 9.67 -3.32 9.34 -4 9 C-3.67 7.02 -3.34 5.04 -3 3 C-2.34 3 -1.68 3 -1 3 C-0.67 2.01 -0.34 1.02 0 0 Z " fill="#241A00" transform="translate(642,560)"/>
<path d="M0 0 C1.98 0 3.96 0 6 0 C6.66 1.32 7.32 2.64 8 4 C2.25 2.25 2.25 2.25 0 0 Z " fill="#E7C801" transform="translate(89,617)"/>
</svg>
